<svg width="48" height="48" viewBox="0 0 48 48" fill="none" xmlns="http://www.w3.org/2000/svg">
<path fill-rule="evenodd" clip-rule="evenodd" d="M24.576 41.817L24.58 41.815L24.59 41.808L24.62 41.785L24.738 41.7C24.838 41.626 24.984 41.518 25.168 41.376C25.536 41.094 26.058 40.679 26.681 40.146C28.3164 38.7481 29.8456 37.2306 31.256 35.606C34.564 31.78 38 26.32 38 20.076C38 16.346 36.526 12.766 33.902 10.126C32.605 8.81939 31.0625 7.78218 29.3631 7.07408C27.6637 6.36597 25.841 6.00094 24 6C22.1591 6.00081 20.3364 6.36568 18.637 7.07361C16.9377 7.78155 15.3951 8.81857 14.098 10.125C11.4714 12.771 9.99824 16.3487 10 20.077C10 26.32 13.436 31.78 16.744 35.606C18.1544 37.2306 19.6836 38.7481 21.319 40.146C21.943 40.679 22.464 41.094 22.832 41.376C23.0125 41.5151 23.1948 41.6518 23.379 41.786L23.411 41.808L23.42 41.815L23.424 41.817C23.769 42.06 24.231 42.06 24.576 41.817ZM29 20C29 21.3261 28.4732 22.5979 27.5355 23.5355C26.5979 24.4732 25.3261 25 24 25C22.6739 25 21.4021 24.4732 20.4645 23.5355C19.5268 22.5979 19 21.3261 19 20C19 18.6739 19.5268 17.4021 20.4645 16.4645C21.4021 15.5268 22.6739 15 24 15C25.3261 15 26.5979 15.5268 27.5355 16.4645C28.4732 17.4021 29 18.6739 29 20Z" fill="black"/>
</svg>
